HIERARCHY
ROOT hip
{
  OFFSET 0 0 0
  CHANNELS 6 Xposition Yposition Zposition Zrotation Yrotation Xrotation
  JOINT abdomen
  {
    OFFSET 0 20.6881 -0.73152
    CHANNELS 3 Zrotation Xrotation Yrotation
    JOINT chest
    {
      OFFSET 0 11.7043 -0.48768
      CHANNELS 3 Zrotation Xrotation Yrotation
      JOINT neck
      {
        OFFSET 0 22.1894 -2.19456
        CHANNELS 3 Zrotation Xrotation Yrotation
        JOINT head
        {
          OFFSET -0.24384 7.07133 1.2192
          CHANNELS 3 Zrotation Xrotation Yrotation
          JOINT leftEye
          {
            OFFSET 4.14528 8.04674 8.04672
            CHANNELS 3 Zrotation Xrotation Yrotation
            End Site
            {
              OFFSET 1 0 0
            }
          }
          JOINT rightEye
          {
            OFFSET -3.6576 8.04674 8.04672
            CHANNELS 3 Zrotation Xrotation Yrotation
            End Site
            {
              OFFSET 1 0 0
            }
          }
        }
      }
      JOINT rCollar
      {
        OFFSET -2.68224 19.2634 -4.8768
        CHANNELS 3 Zrotation Xrotation Yrotation
        JOINT rShldr
        {
          OFFSET -8.77824 -1.95073 1.46304
          CHANNELS 3 Zrotation Xrotation Yrotation
          JOINT rForeArm
          {
            OFFSET -28.1742 -1.7115 0.48768
            CHANNELS 3 Zrotation Xrotation Yrotation
            JOINT rHand
            {
              OFFSET -22.5879 0.773209 7.07136
              CHANNELS 3 Zrotation Xrotation Yrotation
              JOINT rThumb1
              {
                OFFSET -1.2192 -0.487915 3.41376
                CHANNELS 3 Zrotation Xrotation Yrotation
                JOINT rThumb2
                {
                  OFFSET -3.37035 -0.52449 3.41376
                  CHANNELS 3 Zrotation Xrotation Yrotation
                  End Site
                  {
                    OFFSET -1.78271 -1.18214 1.43049
                  }
                }
              }
              JOINT rIndex1
              {
                OFFSET -7.75947 0.938293 5.60832
                CHANNELS 3 Zrotation Xrotation Yrotation
                JOINT rIndex2
                {
                  OFFSET -2.54057 -0.884171 1.56538
                  CHANNELS 3 Zrotation Xrotation Yrotation
                  End Site
                  {
                    OFFSET -1.62519 -0.234802 1.16502
                  }
                }
              }
              JOINT rMid1
              {
                OFFSET -8.24714 1.18213 3.41376
                CHANNELS 3 Zrotation Xrotation Yrotation
                JOINT rMid2
                {
                  OFFSET -3.10165 -0.590103 1.0647
                  CHANNELS 3 Zrotation Xrotation Yrotation
                  End Site
                  {
                    OFFSET -2.48547 -0.328903 0.83742
                  }
                }
              }
              JOINT rRing1
              {
                OFFSET -8.82822 0.546677 1.51678
                CHANNELS 3 Zrotation Xrotation Yrotation
                JOINT rRing2
                {
                  OFFSET -2.60934 -0.819778 -0.0198488
                  CHANNELS 3 Zrotation Xrotation Yrotation
                  End Site
                  {
                    OFFSET -2.33842 -0.294052 0.168128
                  }
                }
              }
              JOINT rPinky1
              {
                OFFSET -8.27202 -0.0477905 -0.4584
                CHANNELS 3 Zrotation Xrotation Yrotation
                JOINT rPinky2
                {
                  OFFSET -1.82734 -0.647385 -0.700984
                  CHANNELS 3 Zrotation Xrotation Yrotation
                  End Site
                  {
                    OFFSET -1.69225 -0.51767 -0.607171
                  }
                }
              }
            }
          }
        }
      }
      JOINT lCollar
      {
        OFFSET 2.68224 19.2634 -4.8768
        CHANNELS 3 Zrotation Xrotation Yrotation
        JOINT lShldr
        {
          OFFSET 8.77824 -1.95073 1.46304
          CHANNELS 3 Zrotation Xrotation Yrotation
          JOINT lForeArm
          {
            OFFSET 28.1742 -1.7115 0.48768
            CHANNELS 3 Zrotation Xrotation Yrotation
            JOINT lHand
            {
              OFFSET 22.5879 0.773209 7.07136
              CHANNELS 3 Zrotation Xrotation Yrotation
              JOINT lThumb1
              {
                OFFSET 1.2192 -0.487915 3.41376
                CHANNELS 3 Zrotation Xrotation Yrotation
                JOINT lThumb2
                {
                  OFFSET 3.37035 -0.52449 3.41376
                  CHANNELS 3 Zrotation Xrotation Yrotation
                  End Site
                  {
                    OFFSET 1.78271 -1.18214 1.43049
                  }
                }
              }
              JOINT lIndex1
              {
                OFFSET 7.75947 0.938293 5.60832
                CHANNELS 3 Zrotation Xrotation Yrotation
                JOINT lIndex2
                {
                  OFFSET 2.54057 -0.884171 1.56538
                  CHANNELS 3 Zrotation Xrotation Yrotation
                  End Site
                  {
                    OFFSET 1.62519 -0.234802 1.16502
                  }
                }
              }
              JOINT lMid1
              {
                OFFSET 8.24714 1.18213 3.41376
                CHANNELS 3 Zrotation Xrotation Yrotation
                JOINT lMid2
                {
                  OFFSET 3.10165 -0.590103 1.0647
                  CHANNELS 3 Zrotation Xrotation Yrotation
                  End Site
                  {
                    OFFSET 2.48547 -0.328903 0.83742
                  }
                }
              }
              JOINT lRing1
              {
                OFFSET 8.82822 0.546677 1.51678
                CHANNELS 3 Zrotation Xrotation Yrotation
                JOINT lRing2
                {
                  OFFSET 2.60934 -0.819778 -0.0198488
                  CHANNELS 3 Zrotation Xrotation Yrotation
                  End Site
                  {
                    OFFSET 2.33842 -0.294052 0.168128
                  }
                }
              }
              JOINT lPinky1
              {
                OFFSET 8.27202 -0.0477905 -0.4584
                CHANNELS 3 Zrotation Xrotation Yrotation
                JOINT lPinky2
                {
                  OFFSET 1.82734 -0.647385 -0.700984
                  CHANNELS 3 Zrotation Xrotation Yrotation
                  End Site
                  {
                    OFFSET 1.69225 -0.51767 -0.607171
                  }
                }
              }
            }
          }
        }
      }
    }
  }
  JOINT rButtock
  {
    OFFSET -8.77824 4.35084 1.2192
    CHANNELS 3 Zrotation Xrotation Yrotation
    JOINT rThigh
    {
      OFFSET 0 -1.70687 -2.19456
      CHANNELS 3 Zrotation Xrotation Yrotation
      JOINT rShin
      {
        OFFSET 0 -36.8199 0.73152
        CHANNELS 3 Zrotation Xrotation Yrotation
        JOINT rFoot
        {
          OFFSET 0.73152 -45.1104 -5.12064
          CHANNELS 3 Zrotation Xrotation Yrotation
          End Site
          {
            OFFSET -1.1221 -3.69964 12.103
          }
        }
      }
    }
  }
  JOINT lButtock
  {
    OFFSET 8.77824 4.35084 1.2192
    CHANNELS 3 Zrotation Xrotation Yrotation
    JOINT lThigh
    {
      OFFSET 0 -1.70687 -2.19456
      CHANNELS 3 Zrotation Xrotation Yrotation
      JOINT lShin
      {
        OFFSET 0 -36.8199 0.73152
        CHANNELS 3 Zrotation Xrotation Yrotation
        JOINT lFoot
        {
          OFFSET -0.73152 -45.1104 -5.12064
          CHANNELS 3 Zrotation Xrotation Yrotation
          End Site
          {
            OFFSET 1.1221 -3.69964 12.103
          }
        }
      }
    }
  }
}
MOTION
Frames:	4
Frame Time:	0.03333
-0.25343641030914454 40.15632137590577 1.475366324169417 1.315699577331543 27.05030059814453 -6.623499870300293 -9.335728645324707 19.77389907836914 1.5376598834991455 6.595649719238281 -6.402039527893066 0.43833598494529724 -5.482219696044922 15.880599021911621 -8.911919593811035 9.576269149780273 -21.297199249267578 -15.549397468566895 -0.0 0.0 -0.0 -0.0 0.0 -0.0 -1.1449996224592585e-13 3.6894432279242773e-13 -1.908332704098764e-13 68.52439880371094 22.07459831237793 -18.311899185180664 -23.752099990844727 -18.641202926635742 48.835697174072266 -0.029449906200170517 -4.894060134887695 -0.6895079612731934 5.973335714948291e-10 -1.881348854482212e-09 6.001070196326452e-10 1.0294437524649425e-09 -3.242817125936881e-09 1.0350414969551025e-09 5.973462835484611e-10 -1.881348854482212e-09 6.000943075790133e-10 7.7309088706970215 5.474880218505859 0.41731396317481995 5.973462835484611e-10 -1.881348854482212e-09 6.001070196326452e-10 2.9055399894714355 0.9651829600334167 0.10290198773145676 5.973335714948291e-10 -1.881348854482212e-09 6.001070196326452e-10 10.27859878540039 0.73180091381073 0.025912299752235413 5.973335714948291e-10 -1.881348854482212e-09 6.001134034150368e-10 2.2216696739196777 -0.7334870100021362 -0.2089199721813202 -1.1449996224592585e-13 3.6894432279242773e-13 -1.908332704098764e-13 -56.53609085083008 48.35420227050781 -18.65129852294922 28.39829444885254 -34.278594970703125 -74.16399383544922 1.1333699226379395 -28.742902755737305 4.420840263366699 -2.2303320301730878e-10 1.2785600134179731e-08 -1.621822010022811e-09 -3.5269803744242267e-10 2.2174800662355665e-08 -2.799377840645434e-09 -2.2303320301730878e-10 1.2785600134179731e-08 -1.6218029141867873e-09 -7.7309088706970215 5.474880218505859 -0.41731396317481995 -2.2303320301730878e-10 1.2785600134179731e-08 -1.6218092424580277e-09 -2.9055399894714355 0.9651829600334167 -0.10290198773145676 -2.2303320301730878e-10 1.2785600134179731e-08 -1.621822010022811e-09 -10.27859878540039 0.73180091381073 -0.025912299752235413 -2.23020477085889e-10 1.2785600134179731e-08 -1.621822010022811e-09 -2.2216696739196777 -0.7334870100021362 0.2089199721813202 -0.0 0.0 -0.0 -37.766300201416016 -50.03659439086914 -19.186800003051758 -0.44908496737480164 40.35639953613281 0.1807439923286438 -8.556848526000977 38.917701721191406 12.747098922729492 -0.0 0.0 -0.0 9.006199836730957 12.296899795532227 -0.2031879872083664 0.06136644631624222 42.627803802490234 -2.4744300842285156 19.856399536132812 -17.020999908447266 38.21580123901367
-0.6015369213175651 39.82062440838881 2.8344222107363333 2.1526999473571777 27.628400802612305 -5.019100666046143 -9.508099555969238 18.335599899291992 0.9810929894447327 6.698209285736084 -6.409799575805664 0.2877419888973236 -5.647929668426514 15.595699310302734 -8.810379981994629 9.420748710632324 -21.03580093383789 -15.381001472473145 -0.0 0.0 -0.0 -0.0 0.0 -0.0 -1.1449996224592585e-13 2.6716657857382697e-13 -1.2722218027325094e-14 69.02059173583984 22.129098892211914 -18.6968994140625 -23.656896591186523 -18.469900131225586 48.54169845581055 -0.031351398676633835 -5.045939922332764 -0.7110199928283691 4.922353635805621e-10 -1.641178859479453e-09 5.182395623748448e-10 8.469308032665879e-10 -2.839382728936357e-09 9.012673940489435e-10 4.922353635805621e-10 -1.641178859479453e-09 5.182204665388213e-10 7.7309088706970215 5.474880218505859 0.41731396317481995 4.92248075634194e-10 -1.6411915160219337e-09 5.182331785924532e-10 2.9055399894714355 0.9651829600334167 0.10290198773145676 4.922353635805621e-10 -1.641178859479453e-09 5.182395623748448e-10 10.27859878540039 0.73180091381073 0.025912299752235413 4.922353635805621e-10 -1.641178859479453e-09 5.182458906460852e-10 2.2216696739196777 -0.7334870100021362 -0.2089199721813202 -1.1449996224592585e-13 2.6716657857382697e-13 -1.2722218027325094e-14 -57.04669189453125 48.879390716552734 -17.257198333740234 28.421098709106445 -34.77579879760742 -74.96549224853516 1.1619499921798706 -29.068798065185547 4.480589866638184 -4.487889504467546e-10 1.2876805399741897e-08 -1.7453801737232766e-09 -7.400005608282356e-10 2.2389793130628277e-08 -3.020229177863598e-09 -4.487889504467546e-10 1.2876805399741897e-08 -1.7453674061584934e-09 -7.7309088706970215 5.474880218505859 -0.41731396317481995 -4.487889504467546e-10 1.2876805399741897e-08 -1.7453801737232766e-09 -2.9055399894714355 0.9651829600334167 -0.10290198773145676 -4.487889504467546e-10 1.2876805399741897e-08 -1.7453801737232766e-09 -10.27859878540039 0.73180091381073 -0.025912299752235413 -4.4877623839312264e-10 1.2876805399741897e-08 -1.7453929412880598e-09 -2.2216696739196777 -0.7334870100021362 0.2089199721813202 -0.0 0.0 -0.0 -35.71909713745117 -48.03959655761719 -16.462900161743164 -0.41907092928886414 38.22600173950195 0.10549399256706238 -5.797810077667236 32.88859558105469 9.096240043640137 -0.0 0.0 -0.0 9.434049606323242 12.69729995727539 -0.6249879598617554 0.09904643893241882 41.49609375 -2.1927499771118164 18.11309814453125 -14.803500175476074 37.54399871826172
-1.0421414590198186 39.392853075765494 4.198061794566563 2.8080999851226807 28.0122013092041 -3.5636000633239746 -9.919249534606934 16.972900390625 0.40356501936912537 6.740879535675049 -6.616679668426514 0.13627900183200836 -5.741639614105225 15.40619945526123 -8.664870262145996 9.3472900390625 -20.834300994873047 -15.112600326538086 -0.0 0.0 -0.0 -0.0 0.0 -0.0 -1.2722218027325094e-14 -6.361109013662547e-14 -3.1805545068312735e-14 69.65209197998047 22.34939956665039 -18.956701278686523 -23.53129768371582 -18.246301651000977 48.160400390625 -0.03261289373040199 -5.1444902420043945 -0.7249829769134521 1.2621712008886732e-10 2.1003110362016741e-10 -2.8455149347905717e-10 2.1891120860484392e-10 3.518838276317382e-10 -4.852126478382957e-10 1.2621712008886732e-10 2.1005654160521914e-10 -2.845705615595051e-10 7.7309088706970215 5.474880218505859 0.41731396317481995 1.2621712008886732e-10 2.1004381567379937e-10 -2.8455784950587315e-10 2.9055399894714355 0.9651829600334167 0.10290198773145676 1.2621712008886732e-10 2.1004381567379937e-10 -2.8455149347905717e-10 10.27859878540039 0.73180091381073 0.025912299752235413 1.2621712008886732e-10 2.1004381567379937e-10 -2.845387536698496e-10 2.2216696739196777 -0.7334870100021362 -0.2089199721813202 -1.2722218027325094e-14 -6.361109013662547e-14 -3.1805545068312735e-14 -57.33879852294922 49.347900390625 -15.639899253845215 28.43329620361328 -35.41529846191406 -76.02809143066406 1.2381699085235596 -29.895599365234375 4.634689807891846 2.5672164394308084e-10 -3.7068343949897553e-09 4.700859701500804e-10 4.313722434812206e-10 -6.479794478764234e-09 8.158821951376183e-10 2.5672164394308084e-10 -3.7068343949897553e-09 4.701050659861039e-10 -7.7309088706970215 5.474880218505859 -0.41731396317481995 2.5672164394308084e-10 -3.7068343949897553e-09 4.700859701500804e-10 -2.9055399894714355 0.9651829600334167 -0.10290198773145676 2.5672164394308084e-10 -3.7068343949897553e-09 4.700859701500804e-10 -10.27859878540039 0.73180091381073 -0.025912299752235413 2.567343559967128e-10 -3.7068343949897553e-09 4.700795863676888e-10 -2.2216696739196777 -0.7334870100021362 0.2089199721813202 -0.0 0.0 -0.0 -35.677894592285156 -47.63930130004883 -18.75579833984375 -0.4464859366416931 41.37260055541992 0.32207798957824707 -3.661759853363037 19.436100006103516 8.594320297241211 -0.0 0.0 -0.0 9.963910102844238 12.09109878540039 -0.8214389681816101 0.16023395955562592 42.074398040771484 -1.9046199321746826 16.31039810180664 -12.55739974975586 36.47480010986328
-1.6824848204783251 39.24932689564143 5.362885030384888 3.290999412536621 27.785499572753906 -1.9842997789382935 -8.835790634155273 16.256000518798828 0.25316596031188965 5.909149646759033 -7.1777496337890625 0.13193199038505554 -5.746029376983643 15.30419921875 -8.415279388427734 9.281007766723633 -21.03139877319336 -14.626099586486816 -0.0 0.0 -0.0 -0.0 0.0 -0.0 -4.2373498134712675e-30 -1.5266661632790113e-13 1.3994439830057603e-13 69.91539764404297 22.436399459838867 -18.42020034790039 -23.376197814941406 -17.975200653076172 47.6924934387207 -0.03077639453113079 -5.005749702453613 -0.7053208947181702 -5.236465080993291e-11 6.473319102973107e-10 -3.422658267915324e-10 -8.989519545421487e-11 1.1073545413964325e-09 -5.843950878769988e-10 -5.2377373271905725e-11 6.473573344045747e-10 -3.4228492262755594e-10 7.7309088706970215 5.474880218505859 0.41731396317481995 -5.236465080993291e-11 6.473446223509427e-10 -3.4227218281834837e-10 2.9055399894714355 0.9651829600334167 0.10290198773145676 -5.236465080993291e-11 6.473319102973107e-10 -3.422658267915324e-10 10.27859878540039 0.73180091381073 0.025912299752235413 -5.2377373271905725e-11 6.473446223509427e-10 -3.4225311473790043e-10 2.2216696739196777 -0.7334870100021362 -0.2089199721813202 -4.2373498134712675e-30 -1.5266661632790113e-13 1.3994439830057603e-13 -57.86298751831055 49.502593994140625 -14.010000228881836 28.431995391845703 -36.053497314453125 -77.09249877929688 1.2047600746154785 -29.551700592041016 4.569629192352295 2.2511964514748684e-10 -6.179397438188516e-09 8.060161427181356e-10 3.6913516687775427e-10 -1.0756597390582101e-08 1.3948512345152153e-09 2.2510691921606707e-10 -6.179397438188516e-09 8.060288547717676e-10 -7.7309088706970215 5.474880218505859 -0.41731396317481995 2.2511964514748684e-10 -6.179397438188516e-09 8.060161427181356e-10 -2.9055399894714355 0.9651829600334167 -0.10290198773145676 2.2510691921606707e-10 -6.179397438188516e-09 8.060161427181356e-10 -10.27859878540039 0.73180091381073 -0.025912299752235413 2.2511964514748684e-10 -6.179397438188516e-09 8.06009758935744e-10 -2.2216696739196777 -0.7334870100021362 0.2089199721813202 -0.0 0.0 -0.0 -34.69959259033203 -49.579402923583984 -19.541698455810547 -0.5362928509712219 45.01659393310547 0.4694799780845642 -2.633389949798584 12.651700019836426 8.709460258483887 -0.0 0.0 -0.0 11.258000373840332 10.730299949645996 -0.6074369549751282 0.25242599844932556 44.360103607177734 -1.7530699968338013 13.975299835205078 -9.572680473327637 35.02289962768555
